<?xml version="1.0" encoding="UTF-8" standalone="no"?><!DOCTYPE svg PUBLIC "-//W3C//DTD SVG 1.1//EN" "http://www.w3.org/Graphics/SVG/1.1/DTD/svg11.dtd"><svg width="100%" height="100%" viewBox="0 0 1381 276" version="1.1" xmlns="http://www.w3.org/2000/svg" xmlns:xlink="http://www.w3.org/1999/xlink" xml:space="preserve" xmlns:serif="http://www.serif.com/" style="fill-rule:evenodd;clip-rule:evenodd;stroke-linejoin:round;stroke-miterlimit:1.41421;"><rect id="logo_web" x="0" y="0" width="1380.75" height="275.347" style="fill:none;"/><g><g><path d="M393.65,222.249l-31.829,0l71.031,-167.339l33.351,0l72.553,167.339l-33.351,0l-19.075,-45.638l-55.584,0l10.649,-26.915l33.701,0l-26.329,-62.84l-55.117,135.393Z" style="fill:#fff;fill-rule:nonzero;"/><path d="M662.1,99.378l0,122.871l-24.223,0l-3.745,-15.681c-14.121,10.454 -29.099,15.681 -44.936,15.681c-25.12,0 -37.681,-14.862 -37.681,-44.585l0,-78.286l31.011,0l0,77.467c0,13.575 5.929,20.362 17.787,20.362c10.064,0 20.323,-4.018 30.776,-12.053l0,-85.776l31.011,0Z" style="fill:#fff;fill-rule:nonzero;"/><path d="M769.174,131.441c-6.398,-4.213 -14.433,-6.319 -24.107,-6.319c-19.269,0 -28.904,10.805 -28.904,32.415c0,25.666 10.025,38.499 30.075,38.499c8.113,0 15.758,-1.131 22.936,-3.393l0,-61.202Zm31.01,83.436c-18.801,4.915 -37.174,7.372 -55.117,7.372c-39.709,0 -59.563,-21.298 -59.563,-63.893c0,-39.319 19.425,-58.978 58.276,-58.978c8.27,0 16.734,1.95 25.394,5.851l0,-50.319l31.01,0l0,159.967Z" style="fill:#fff;fill-rule:nonzero;"/><path d="M860.45,54.91l0,24.574l-31.011,0l0,-24.574l31.011,0Zm0,44.468l0,122.871l-31.011,0l0,-122.871l31.011,0Z" style="fill:#fff;fill-rule:nonzero;"/><path d="M891.483,79.484l22.936,0l4.681,19.894l30.893,0l0,24.574l-27.5,0l0,56.521c0,11.468 4.954,17.202 14.862,17.202l12.638,0l0,24.574l-27.617,0c-20.595,0 -30.893,-11.039 -30.893,-33.117l0,-109.648Z" style="fill:#fff;fill-rule:nonzero;"/><path d="M1071.2,218.738c-10.142,2.341 -20.674,3.511 -31.596,3.511c-43.688,0 -65.531,-21.259 -65.531,-63.776c0,-39.397 21.843,-59.095 65.531,-59.095c10.922,0 21.454,1.17 31.596,3.51l0,24.574c-10.142,-2.34 -19.894,-3.51 -29.255,-3.51c-24.575,0 -36.862,11.507 -36.862,34.521c0,26.134 12.287,39.202 36.862,39.202c9.361,0 19.113,-1.17 29.255,-3.511l0,24.574Z" style="fill:#fff;fill-rule:nonzero;"/><path d="M1116.83,160.345c0,25.667 9.946,38.5 29.84,38.5c19.893,0 29.84,-12.833 29.84,-38.5c0,-25.042 -9.947,-37.563 -29.84,-37.563c-19.894,0 -29.84,12.521 -29.84,37.563Zm-31.011,0.468c0,-41.191 20.284,-61.786 60.851,-61.786c40.567,0 60.851,20.595 60.851,61.786c0,41.114 -20.284,61.67 -60.851,61.67c-40.411,0 -60.695,-20.556 -60.851,-61.67Z" style="fill:#fff;fill-rule:nonzero;"/><path d="M1238.07,222.249l0,-122.871l23.989,0l3.862,18.021c11.78,-12.014 25.199,-18.021 40.255,-18.021c29.099,0 43.649,15.134 43.649,45.404l0,77.467l-31.011,0l0,-77.467c0,-13.575 -6.748,-20.362 -20.244,-20.362c-10.064,0 -19.894,4.018 -29.489,12.053l0,85.776l-31.011,0Z" style="fill:#fff;fill-rule:nonzero;"/></g><path d="M278.478,40.961c0,-4.755 -1.889,-9.315 -5.251,-12.677c-3.362,-3.362 -7.922,-5.251 -12.677,-5.251c-45.676,0 -166.027,0 -211.703,0c-4.755,0 -9.315,1.889 -12.678,5.251c-3.362,3.362 -5.251,7.922 -5.251,12.677c0,42.812 0,150.614 0,193.425c0,4.755 1.889,9.315 5.251,12.678c3.363,3.362 7.923,5.251 12.678,5.251c45.676,0 166.027,0 211.703,0c4.755,0 9.315,-1.889 12.677,-5.251c3.362,-3.363 5.251,-7.923 5.251,-12.678c0,-42.811 0,-150.613 0,-193.425Zm-126.759,44.31l-44.036,0c-19.783,0 -29.674,9.37 -29.674,28.109c0,12.672 7.701,23.167 23.102,31.484l-30.69,45.356l22.628,0l29.471,-45.723l0,-8.88c-17.163,-3.18 -25.745,-10.397 -25.745,-21.65c0,-7.731 4.02,-11.596 12.059,-11.596l24.593,0l0,87.702l18.292,0l0,-104.802Zm49.995,-0.143l-44.037,0l0,104.801l18.292,0l0,-87.701l24.593,0c8.04,0 12.059,3.865 12.059,11.595c0,11.254 -8.581,18.47 -25.744,21.651l0,8.88l29.471,45.722l22.628,0l-30.691,-45.355c15.402,-8.318 23.103,-18.813 23.103,-31.485c0,-18.739 -9.891,-28.108 -29.674,-28.108Z" style="fill:#fff;"/></g></svg>